<svg version="1.1" xmlns="http://www.w3.org/2000/svg" xmlns:xlink="http://www.w3.org/1999/xlink" width="169.22477" height="175.65797" viewBox="0,0,169.22477,175.65797"><g transform="translate(-155.38761,-92.17102)"><g data-paper-data="{&quot;isPaintingLayer&quot;:true}" fill-rule="nonzero" stroke-linecap="butt" stroke-linejoin="miter" stroke-miterlimit="10" stroke-dasharray="" stroke-dashoffset="0" style="mix-blend-mode: normal"><path d="M163.92404,187.48481c0,-44.37287 35.97131,-80.34418 80.34418,-80.34418c44.37287,0 80.34418,35.97131 80.34418,80.34418c0,44.37287 -35.97131,80.34418 -80.34418,80.34418c-44.37287,0 -80.34418,-35.97131 -80.34418,-80.34418z" fill="#000000" stroke="none" stroke-width="0.5"/><path d="M156.33008,181.02085c0,-44.37287 35.97131,-80.34418 80.34418,-80.34418c44.37287,0 80.34418,35.97131 80.34418,80.34418c0,44.37287 -35.97131,80.34418 -80.34418,80.34418c-44.37287,0 -80.34418,-35.97131 -80.34418,-80.34418z" fill="#faff99" stroke="none" stroke-width="0.5"/><path d="M155.38761,172.51519c0,-44.37287 35.97131,-80.34418 80.34418,-80.34418c44.37287,0 80.34418,35.97131 80.34418,80.34418c0,44.37287 -35.97131,80.34418 -80.34418,80.34418c-44.37287,0 -80.34418,-35.97131 -80.34418,-80.34418z" fill="#99c9ff" stroke="none" stroke-width="0.5"/><path d="M170.00366,172.51519c0,-36.30062 29.4275,-65.72812 65.72812,-65.72812c36.30066,0 65.72812,29.4275 65.72812,65.72812c0,36.30066 -29.42747,65.72812 -65.72812,65.72812c-36.30062,0 -65.72812,-29.4275 -65.72812,-65.72812z" fill="#aed4ff" stroke="none" stroke-width="0.5"/><path d="M202.36778,172.51519c0,-18.42645 14.93756,-33.36401 33.36401,-33.36401c18.42645,0 33.36401,14.93756 33.36401,33.36401c0,18.42645 -14.93756,33.36401 -33.36401,33.36401c-18.42645,0 -33.36401,-14.93756 -33.36401,-33.36401z" fill="#f1f8ff" stroke="none" stroke-width="0.5"/><path d="M218.28884,167.8659c0,-9.63349 8.33147,-8.04692 17.96496,-8.04692c9.63349,0 16.92097,-1.58654 16.92097,8.04695c0,9.63349 -7.80949,17.44295 -17.44295,17.44295c-9.63349,0 -17.44295,-7.80945 -17.44295,-17.44295z" fill="#37383a" stroke="none" stroke-width="0.5"/><path d="M292.61455,163.47977c-1.56512,-0.57641 -2.50908,-1.90792 -3.22532,-3.22228c-4.67529,-7.34121 -9.59297,-14.47137 -15.60257,-20.65327c-3.86441,-3.95785 -7.72882,-7.9157 -12.07843,-11.45199c-2.28134,-1.89079 -4.56249,-3.78132 -6.72254,-5.77749c-0.86703,-0.75294 -2.08312,-1.41759 -1.53869,-2.751c0.40828,-1.00011 1.66851,-1.01965 3.31077,0.13556c2.63039,1.80251 5.3821,3.49965 7.75524,5.74109c5.20179,4.51713 10.38871,9.26216 14.96913,14.53413c4.47398,5.14945 8.3561,10.59772 11.87453,16.36238c0.92912,1.5594 1.3879,3.31246 1.84645,5.06527c0.19824,0.47316 0.13922,1.38526 -0.58859,2.0176z" fill="#ffffff" stroke="#ffffff" stroke-width="2.5"/></g></g></svg>