<svg version="1.1" xmlns="http://www.w3.org/2000/svg" xmlns:xlink="http://www.w3.org/1999/xlink" width="52.65621" height="54.65796" viewBox="0,0,52.65621,54.65796"><g transform="translate(-215,-155)"><g data-paper-data="{&quot;isPaintingLayer&quot;:true}" fill-rule="nonzero" stroke-linecap="butt" stroke-linejoin="miter" stroke-miterlimit="10" stroke-dasharray="" stroke-dashoffset="0" style="mix-blend-mode: normal"><path d="M217.65621,184.65797c0,-13.80712 11.19288,-25 25,-25c13.80712,0 25,11.19288 25,25c0,13.80712 -11.19288,25 -25,25c-13.80712,0 -25,-11.19288 -25,-25z" fill="#000000" stroke="none" stroke-width="0.5"/><path d="M215.29326,182.64663c0,-13.80712 11.19288,-25 25,-25c13.80712,0 25,11.19288 25,25c0,13.80712 -11.19288,25 -25,25c-13.80712,0 -25,-11.19288 -25,-25z" fill="#faff99" stroke="none" stroke-width="0.5"/><path d="M215,180c0,-13.80712 11.19288,-25 25,-25c13.80712,0 25,11.19288 25,25c0,13.80712 -11.19288,25 -25,25c-13.80712,0 -25,-11.19288 -25,-25z" fill="#99c9ff" stroke="none" stroke-width="0.5"/><path d="M219.54795,180c0,-11.29535 9.1567,-20.45205 20.45205,-20.45205c11.29536,0 20.45205,9.1567 20.45205,20.45205c0,11.29536 -9.15669,20.45205 -20.45205,20.45205c-11.29535,0 -20.45205,-9.1567 -20.45205,-20.45205z" fill="#aed4ff" stroke="none" stroke-width="0.5"/><path d="M229.61841,180c0,-5.7336 4.64799,-10.38159 10.38159,-10.38159c5.7336,0 10.38159,4.64799 10.38159,10.38159c0,5.7336 -4.64799,10.38159 -10.38159,10.38159c-5.7336,0 -10.38159,-4.64799 -10.38159,-10.38159z" fill="#f1f8ff" stroke="none" stroke-width="0.5"/><path d="M234.57243,178.55332c0,-2.99757 2.59243,-2.50389 5.59,-2.50389c2.99757,0 5.26515,-0.49367 5.26515,2.5039c0,2.99757 -2.43001,5.42757 -5.42757,5.42757c-2.99757,0 -5.42757,-2.43 -5.42757,-5.42757z" fill="#37383a" stroke="none" stroke-width="0.5"/><path d="M257.69972,177.18853c-0.48701,-0.17935 -0.78073,-0.59367 -1.0036,-1.00265c-1.45477,-2.2843 -2.98496,-4.50293 -4.85492,-6.4265c-1.20245,-1.23153 -2.40491,-2.46306 -3.75834,-3.56341c-0.70987,-0.58834 -1.41967,-1.1766 -2.09179,-1.79773c-0.26979,-0.23428 -0.64819,-0.4411 -0.47878,-0.85601c0.12704,-0.31119 0.51917,-0.31727 1.03018,0.04218c0.81848,0.56087 1.6747,1.08895 2.41313,1.78641c1.61859,1.40555 3.23256,2.88202 4.65781,4.52246c1.39213,1.60231 2.60009,3.2976 3.6949,5.09134c0.28911,0.48523 0.43186,1.03071 0.57455,1.57611c0.06169,0.14723 0.04332,0.43104 -0.18314,0.6278z" fill="#ffffff" stroke="#ffffff" stroke-width="2.5"/></g></g></svg>