<svg version="1.1" xmlns="http://www.w3.org/2000/svg" xmlns:xlink="http://www.w3.org/1999/xlink" width="26.71652" height="27.73216" viewBox="0,0,26.71652,27.73216"><g transform="translate(-226.64174,-166.13392)"><g data-paper-data="{&quot;isPaintingLayer&quot;:true}" fill-rule="nonzero" stroke-linecap="butt" stroke-linejoin="miter" stroke-miterlimit="10" stroke-dasharray="" stroke-dashoffset="0" style="mix-blend-mode: normal"><path d="M227.98944,181.18167c0,-7.00541 5.679,-12.68441 12.68441,-12.68441c7.00541,0 12.68441,5.679 12.68441,12.68441c0,7.00541 -5.679,12.68441 -12.68441,12.68441c-7.00541,0 -12.68441,-5.679 -12.68441,-12.68441z" fill="#000000" stroke="none" stroke-width="0.5"/><path d="M226.79053,180.16117c0,-7.00541 5.679,-12.68441 12.68441,-12.68441c7.00541,0 12.68441,5.679 12.68441,12.68441c0,7.00541 -5.679,12.68441 -12.68441,12.68441c-7.00541,0 -12.68441,-5.679 -12.68441,-12.68441z" fill="#faff99" stroke="none" stroke-width="0.5"/><path d="M226.64174,178.81833c0,-7.00541 5.679,-12.68441 12.68441,-12.68441c7.00541,0 12.68441,5.679 12.68441,12.68441c0,7.00541 -5.679,12.68441 -12.68441,12.68441c-7.00541,0 -12.68441,-5.679 -12.68441,-12.68441z" fill="#99c9ff" stroke="none" stroke-width="0.5"/><path d="M228.94926,178.81833c0,-5.73099 4.64589,-10.37689 10.37689,-10.37689c5.731,0 10.37689,4.64589 10.37689,10.37689c0,5.731 -4.64589,10.37689 -10.37689,10.37689c-5.73099,0 -10.37689,-4.64589 -10.37689,-10.37689z" fill="#aed4ff" stroke="none" stroke-width="0.5"/><path d="M234.05878,178.81833c0,-2.90909 2.35828,-5.26737 5.26737,-5.26737c2.90909,0 5.26737,2.35828 5.26737,5.26737c0,2.90909 -2.35828,5.26737 -5.26737,5.26737c-2.90909,0 -5.26737,-2.35828 -5.26737,-5.26737z" fill="#f1f8ff" stroke="none" stroke-width="0.5"/><path d="M236.57233,178.08432c0,-1.5209 1.31534,-1.27041 2.83623,-1.27041c1.5209,0 2.67141,-0.25048 2.67141,1.27042c0,1.5209 -1.23293,2.75382 -2.75382,2.75382c-1.5209,0 -2.75382,-1.23292 -2.75382,-2.75382z" fill="#37383a" stroke="none" stroke-width="0.5"/><path d="M248.30657,177.39185c-0.2471,-0.091 -0.39612,-0.30121 -0.5092,-0.50872c-0.73812,-1.159 -1.5145,-2.28468 -2.46327,-3.26065c-0.61009,-0.62485 -1.22019,-1.2497 -1.90689,-1.80799c-0.36017,-0.29851 -0.72031,-0.59698 -1.06132,-0.91213c-0.13689,-0.11887 -0.32888,-0.2238 -0.24292,-0.43432c0.06446,-0.15789 0.26341,-0.16098 0.52269,0.0214c0.41528,0.28457 0.8497,0.55251 1.22437,0.90638c0.82123,0.71314 1.64012,1.46227 2.36326,2.29459c0.70633,0.81297 1.31922,1.67312 1.87471,2.58323c0.14669,0.24619 0.21912,0.52296 0.29151,0.79968c0.0313,0.0747 0.02198,0.2187 -0.09292,0.31853z" fill="#ffffff" stroke="#ffffff" stroke-width="2.5"/></g></g></svg>